<svg width="16" height="12" viewBox="0 0 16 12" fill="none" xmlns="http://www.w3.org/2000/svg">
<path d="M1 5.5H15C15.1864 5.5 15.3028 5.55994 15.3714 5.62855C15.4401 5.69716 15.5 5.81362 15.5 6C15.5 6.18638 15.4401 6.30284 15.3714 6.37145C15.3028 6.44006 15.1864 6.5 15 6.5H1C0.813624 6.5 0.697164 6.44006 0.628553 6.37145C0.559943 6.30284 0.5 6.18638 0.5 6C0.5 5.81362 0.559943 5.69716 0.628553 5.62855C0.697164 5.55994 0.813624 5.5 1 5.5ZM1 0.5H15C15.1864 0.5 15.3028 0.559943 15.3714 0.628553C15.4401 0.697164 15.5 0.813624 15.5 1C15.5 1.18638 15.4401 1.30284 15.3714 1.37145C15.3028 1.44006 15.1864 1.5 15 1.5H1C0.813624 1.5 0.697164 1.44006 0.628553 1.37145C0.559943 1.30284 0.5 1.18638 0.5 1C0.5 0.813624 0.559943 0.697164 0.628553 0.628553C0.697164 0.559943 0.813624 0.5 1 0.5ZM1 10.5H15C15.1864 10.5 15.3028 10.5599 15.3714 10.6286C15.4401 10.6972 15.5 10.8136 15.5 11C15.5 11.1864 15.4401 11.3028 15.3714 11.3714C15.3028 11.4401 15.1864 11.5 15 11.5H1C0.813624 11.5 0.697164 11.4401 0.628553 11.3714C0.559943 11.3028 0.5 11.1864 0.5 11C0.5 10.8136 0.559943 10.6972 0.628553 10.6286C0.697164 10.5599 0.813624 10.5 1 10.5Z" stroke="#F1F9FF"/>
</svg>
