<svg width="45" height="62" viewBox="0 0 45 62" fill="none" xmlns="http://www.w3.org/2000/svg">
<path d="M2.04573 22.5C0.929878 22.5 0 23.4413 0 24.5709V34.7372C0 35.8667 0.929878 36.8081 2.04573 36.8081C3.16159 36.8081 4.09146 35.8667 4.09146 34.7372V24.5709C4.09146 23.2531 3.16159 22.5 2.04573 22.5Z" fill="white"/>
<path d="M12.0889 14.0273C10.9731 14.0273 10.0432 14.9687 10.0432 16.0982V44.1496C10.0432 45.2792 10.9731 46.2205 12.0889 46.2205C13.2048 46.2205 14.1347 45.2792 14.1347 44.1496V16.0982C13.9487 14.9687 13.2048 14.0273 12.0889 14.0273Z" fill="white"/>
<path d="M21.9444 0.0957031C20.8286 0.0957031 19.8987 1.03702 19.8987 2.16661V59.0223C19.8987 60.1519 20.8286 61.0933 21.9444 61.0933C23.0603 61.0933 23.9901 60.1519 23.9901 59.0223V2.16661C23.9901 1.03702 23.0603 0.0957031 21.9444 0.0957031Z" fill="white"/>
<path d="M31.9876 10.2617C30.8718 10.2617 29.9419 11.203 29.9419 12.3326V46.7849C29.9419 47.9145 30.8718 48.8558 31.9876 48.8558C33.1035 48.8558 34.0334 47.9145 34.0334 46.7849V12.3326C34.0334 11.203 33.1035 10.2617 31.9876 10.2617Z" fill="white"/>
<path d="M42.0306 24.3809C40.9147 24.3809 39.9849 25.3222 39.9849 26.4518V34.5471C39.9849 35.6767 40.9147 36.618 42.0306 36.618C43.1465 36.618 44.0763 35.6767 44.0763 34.5471V26.4518C44.0763 25.3222 43.1465 24.3809 42.0306 24.3809Z" fill="white"/>
</svg>
