<svg width="24" height="20" viewBox="0 0 24 20" fill="none" xmlns="http://www.w3.org/2000/svg">
<path d="M6.85691 10.36C5.58986 10.0619 4.64578 8.91902 4.64578 7.5526C4.64578 5.96258 5.93767 4.67068 7.5277 4.67068C8.49662 4.67068 9.34132 5.14272 9.86304 5.8632C10.2357 5.61476 10.6332 5.41601 11.0804 5.26694C10.3351 4.09927 9.01834 3.3291 7.5277 3.3291C5.19235 3.3291 3.3042 5.21725 3.3042 7.5526C3.3042 9.21715 4.27312 10.6581 5.68923 11.3289C6.03705 10.9562 6.43456 10.6333 6.85691 10.36Z" fill="#666666"/>
<path d="M7.55263 2.45957C7.92529 2.45957 8.22342 2.16144 8.22342 1.78877V0.670791C8.22342 0.298129 7.92529 0 7.55263 0C7.17996 0 6.88184 0.298129 6.88184 0.670791V1.78877C6.88184 2.16144 7.17996 2.45957 7.55263 2.45957Z" fill="#666666"/>
<path d="M2.45957 7.55263C2.45957 7.17996 2.16144 6.88184 1.78877 6.88184H0.670791C0.298129 6.88184 0 7.17996 0 7.55263C0 7.92529 0.298129 8.22342 0.670791 8.22342H1.78877C2.16144 8.22342 2.45957 7.92529 2.45957 7.55263Z" fill="#666666"/>
<path d="M3.95032 3.95032C4.19876 3.70188 4.19876 3.27953 3.95032 3.00624L3.15531 2.21123C2.90687 1.96279 2.48452 1.96279 2.21123 2.21123C1.96279 2.45967 1.96279 2.88202 2.21123 3.15531L3.00624 3.95032C3.13046 4.07454 3.30437 4.14907 3.47828 4.14907C3.65219 4.14907 3.8261 4.07454 3.95032 3.95032Z" fill="#666666"/>
<path d="M2.68327 13.0929C2.85718 13.0929 3.03109 13.0184 3.15531 12.8942L3.95032 12.0992C4.19876 11.8507 4.19876 11.4284 3.95032 11.1551C3.70188 10.9066 3.27953 10.9066 3.00624 11.1551L2.21123 11.9501C1.96279 12.1985 1.96279 12.6209 2.21123 12.8942C2.33545 13.0184 2.50936 13.0929 2.68327 13.0929Z" fill="#666666"/>
<path d="M11.6271 4.14907C11.801 4.14907 11.9749 4.07454 12.0992 3.95032L12.8942 3.15531C13.1426 2.90687 13.1426 2.48452 12.8942 2.21123C12.6457 1.96279 12.2234 1.96279 11.9501 2.21123L11.1551 3.00624C10.9066 3.25469 10.9066 3.67703 11.1551 3.95032C11.3041 4.07454 11.4532 4.14907 11.6271 4.14907Z" fill="#666666"/>
<path d="M22.0863 9.19219L22.0615 9.16734C21.2416 8.47171 20.2727 8.02452 19.2293 7.87545C19.1299 7.85061 19.0553 7.85061 18.956 7.85061C18.9311 7.85061 18.9311 7.85061 18.9063 7.85061C18.8317 7.85061 18.7572 7.82576 18.6827 7.82576C18.6578 7.82576 18.633 7.82576 18.6081 7.82576C18.5336 7.82576 18.4839 7.82576 18.4094 7.82576C18.3846 7.82576 18.3846 7.82576 18.3597 7.82576C18.3349 7.82576 18.31 7.82576 18.2852 7.82576C18.2355 7.82576 18.2106 7.82576 18.161 7.82576C18.1361 7.82576 18.1361 7.82576 18.1113 7.82576C17.0678 6.01214 15.1548 4.94385 13.0679 4.94385C12.3723 4.94385 11.7263 5.06807 11.1052 5.26682C10.6829 5.41589 10.2854 5.61464 9.88787 5.86308C8.42207 6.78231 7.40346 8.34749 7.20471 10.1611C7.08049 10.2108 6.98111 10.2853 6.85689 10.3599C6.40969 10.6331 6.03703 10.9561 5.68922 11.3536C4.96874 12.1983 4.54639 13.2915 4.54639 14.4343C4.54639 17.0429 6.68298 19.1795 9.29161 19.1795H18.3349C21.4652 19.1795 23.9993 16.6206 23.9993 13.5151C24.0242 11.776 23.2788 10.2356 22.0863 9.19219ZM9.31645 17.8131C7.4283 17.8131 5.91281 16.2728 5.91281 14.4094C5.91281 12.9933 6.78236 11.7511 8.09909 11.2294C8.34753 11.13 8.52144 10.9064 8.52144 10.6331C8.62082 8.17358 10.6083 6.26059 13.0679 6.26059C14.5089 6.26059 15.8256 6.93138 16.6952 8.04936C15.6765 8.37233 14.7573 8.94375 14.0617 9.78845C13.8132 10.0617 13.8629 10.4841 14.1362 10.7325C14.2604 10.8319 14.4095 10.8816 14.5586 10.8816C14.7573 10.8816 14.9312 10.8071 15.0554 10.658C15.8008 9.78845 16.8691 9.24188 18.0119 9.1425C18.9311 9.06797 19.8007 9.29156 20.5708 9.73876C20.6205 9.7636 20.6702 9.78845 20.7199 9.83813C20.7447 9.86298 20.7696 9.86298 20.7944 9.88782C20.8938 9.93751 20.9683 10.012 21.0429 10.0866C21.0677 10.1114 21.0926 10.1363 21.1174 10.1611C22.0863 10.9561 22.6826 12.1486 22.6826 13.4902C22.6826 15.8753 20.7199 17.8379 18.3349 17.8379H9.31645V17.8131Z" fill="#666666"/>
</svg>
