<svg width="32" height="32" viewBox="0 0 32 32" fill="none" xmlns="http://www.w3.org/2000/svg">
<path d="M15.8222 0C7.11111 0 0 7.19101 0 16V28.5843C0 30.5618 1.6 32 3.37778 32H8C8.71111 32 9.06667 31.4607 9.06667 30.9214V19.4157C9.06667 18.6966 8.53333 18.3371 8 18.3371H3.37778C3.02222 18.3371 2.66667 18.3371 2.31111 18.5169V16C2.31111 8.44944 8.35556 2.1573 16 2.1573C23.6444 2.1573 29.6889 8.26966 29.6889 16V18.5169C29.3333 18.3371 28.9778 18.3371 28.6222 18.3371H24C23.2889 18.3371 22.9333 18.8764 22.9333 19.4157V30.9214C22.9333 31.6405 23.4667 32 24 32H28.6222C30.5778 32 32 30.382 32 28.5843V16C31.8222 7.19101 24.7111 0 15.8222 0Z" fill="#EE0000"/>
</svg>
