<svg width="21" height="20" viewBox="0 0 21 20" fill="none" xmlns="http://www.w3.org/2000/svg">
<g clip-path="url(#clip0)">
<path d="M20.4531 10.9539H16.5703V8.87578C16.5703 8.83203 16.5813 8.79375 16.5813 8.75C18.5555 8.54219 19.6875 7.24609 19.6875 5.11328V4.62109C19.6875 4.32031 19.4414 4.07422 19.1406 4.07422C18.8398 4.07422 18.5938 4.32031 18.5938 4.62109V5.11328C18.5938 6.68828 17.8938 7.525 16.4664 7.66172C16.2148 6.55156 15.6078 5.59453 14.5961 5.37578C14.443 4.20547 13.7156 3.21563 12.7039 2.70156C13.125 2.26953 13.3984 1.67891 13.3984 1.02812V0.546875C13.3984 0.246094 13.1523 0 12.8516 0C12.5508 0 12.3047 0.246094 12.3047 0.546875V1.03359C12.3047 1.74453 11.7141 2.31328 10.9977 2.31328H10.0516C9.34062 2.31328 8.74453 1.75 8.74453 1.03359V0.546875C8.74453 0.246094 8.49844 0 8.19766 0C7.89687 0 7.65078 0.246094 7.65078 0.546875V1.03359C7.65078 1.68437 7.91875 2.275 8.34531 2.70703C7.33359 3.22109 6.60625 4.21094 6.45312 5.38125C5.44141 5.6 4.83437 6.5625 4.58828 7.67266C3.11719 7.54688 2.40625 6.71016 2.40625 5.11328V4.62109C2.40625 4.32031 2.16016 4.07422 1.85938 4.07422C1.55859 4.07422 1.3125 4.32031 1.3125 4.62109V5.11328C1.3125 7.2625 2.43906 8.56406 4.44609 8.75547C4.44609 8.79375 4.42969 8.8375 4.42969 8.87578V10.9539H0.546875C0.246094 10.9539 0 11.2 0 11.5008C0 11.8016 0.246094 12.0477 0.546875 12.0477H4.42969V12.9938C4.42969 13.4313 4.48984 13.8523 4.57734 14.2625C2.48828 14.3992 1.3125 15.7117 1.3125 17.9102V18.4023C1.3125 18.7031 1.55859 18.9492 1.85938 18.9492C2.16016 18.9492 2.40625 18.7031 2.40625 18.4023V17.9102C2.40625 16.1984 3.23203 15.3562 4.93281 15.3398C5.85156 17.5219 8.01719 19.0586 10.5273 19.0586C13.043 19.0586 15.2031 17.5219 16.1219 15.3398C17.7844 15.3727 18.5938 16.2148 18.5938 17.9102V18.4023C18.5938 18.7031 18.8398 18.9492 19.1406 18.9492C19.4414 18.9492 19.6875 18.7031 19.6875 18.4023V17.9102C19.6875 15.7336 18.5062 14.4211 16.45 14.2625C16.5375 13.8523 16.5703 13.4258 16.5703 12.9883V12.0422H20.4531C20.7539 12.0422 21 11.7961 21 11.4953C21 11.1945 20.7539 10.9539 20.4531 10.9539ZM9.95312 17.932C7.47578 17.6477 5.52344 15.5367 5.52344 12.9883V8.87031C5.52344 8.01719 5.80781 6.79766 6.52969 6.49141C6.80312 7.24609 7.53594 7.77656 8.38359 7.77656H9.95312V17.932ZM8.37813 6.68828C7.90234 6.68828 7.51406 6.3 7.51406 5.82422C7.51406 4.48984 8.60234 3.40156 9.93672 3.40156H11.1125C12.4469 3.40156 13.5352 4.48984 13.5352 5.82422C13.5352 6.3 13.1469 6.68828 12.6711 6.68828H8.37813ZM15.4766 12.9883C15.4766 15.5586 13.5461 17.675 11.0469 17.9375V7.78203H12.6766C13.5242 7.78203 14.2297 7.24609 14.5031 6.49688C15.225 6.80313 15.482 8.02266 15.482 8.87578V12.9883H15.4766Z" fill="#508CA4"/>
</g>
<defs>
<clipPath id="clip0">
<rect width="21" height="19.0586" fill="white"/>
</clipPath>
</defs>
</svg>
