<svg width="18" height="13" viewBox="0 0 18 13" fill="none" xmlns="http://www.w3.org/2000/svg">
<path d="M1.64985 5.75L16.3499 5.75C16.5512 5.75 16.6802 5.81494 16.7576 5.8923C16.8349 5.96966 16.8999 6.09862 16.8999 6.3C16.8999 6.50137 16.8349 6.63033 16.7576 6.70769C16.6802 6.78505 16.5512 6.85 16.3499 6.85L1.64985 6.85C1.44848 6.85 1.31952 6.78505 1.24216 6.70769C1.1648 6.63033 1.09985 6.50137 1.09985 6.3C1.09985 6.09862 1.1648 5.96966 1.24216 5.8923C1.31952 5.81494 1.44848 5.75 1.64985 5.75Z" fill="#222222" stroke="#666666"/>
<path d="M1.64985 0.5L16.3499 0.5C16.5512 0.5 16.6802 0.564943 16.7576 0.642303C16.8349 0.719664 16.8999 0.848624 16.8999 1.05C16.8999 1.25138 16.8349 1.38034 16.7576 1.4577C16.6802 1.53506 16.5512 1.6 16.3499 1.6L1.64985 1.6C1.44848 1.6 1.31952 1.53506 1.24216 1.4577C1.1648 1.38034 1.09985 1.25138 1.09985 1.05C1.09985 0.848624 1.1648 0.719664 1.24216 0.642303C1.31952 0.564943 1.44848 0.5 1.64985 0.5Z" fill="#222222" stroke="#666666"/>
<path d="M1.64985 11L16.3499 11C16.5512 11 16.6802 11.0649 16.7576 11.1423C16.8349 11.2197 16.8999 11.3486 16.8999 11.55C16.8999 11.7514 16.8349 11.8803 16.7576 11.9577C16.6802 12.0351 16.5512 12.1 16.3499 12.1L1.64985 12.1C1.44848 12.1 1.31952 12.0351 1.24216 11.9577C1.1648 11.8803 1.09985 11.7514 1.09985 11.55C1.09985 11.3486 1.1648 11.2197 1.24216 11.1423C1.31952 11.0649 1.44848 11 1.64985 11Z" fill="#222222" stroke="#666666"/>
</svg>
