<svg width="18" height="18" viewBox="0 0 18 18" fill="none" xmlns="http://www.w3.org/2000/svg">
<path d="M10.6815 7.31864C10.314 6.95114 9.8925 6.66014 9.43725 6.44189C9.156 6.72464 9 7.10114 9 7.50014C9 7.65989 9.03 7.81139 9.0765 7.95614C9.27075 8.07689 9.45525 8.21339 9.621 8.37914C10.1873 8.94614 10.5 9.69914 10.5 10.5001C10.5 11.3011 10.188 12.0549 9.62175 12.6219L7.37175 14.8711C6.23775 16.0051 4.26225 16.0051 3.129 14.8711C2.562 14.3041 2.25 13.5511 2.25 12.7501C2.25 11.9491 2.562 11.1961 3.12825 10.6291L4.70625 9.05114C4.5735 8.55089 4.5 8.03189 4.5 7.50014C4.5 7.37864 4.50975 7.25789 4.51725 7.13789C4.4505 7.19714 4.38225 7.25489 4.31775 7.31864L2.06775 9.56864C1.218 10.4184 0.75 11.5479 0.75 12.7501C0.75 13.9524 1.218 15.0819 2.06775 15.9316C2.91825 16.7821 4.04775 17.2501 5.25 17.2501C6.45225 17.2501 7.58175 16.7821 8.43225 15.9316L10.6823 13.6824C11.5312 12.8319 12 11.7024 12 10.5001C12 9.29789 11.5312 8.16839 10.6815 7.31864Z" fill="#508CA4"/>
<path d="M15.9322 2.0685C15.0817 1.218 13.9522 0.75 12.75 0.75C11.5477 0.75 10.4182 1.218 9.56775 2.0685L7.31775 4.31775C6.46875 5.16825 6 6.29775 6 7.5C6 8.70225 6.468 9.83175 7.31775 10.6815C7.68525 11.049 8.10675 11.34 8.562 11.5583C8.844 11.2755 9 10.899 9 10.5C9 10.3365 8.96925 10.1813 8.9205 10.0335C8.727 9.91725 8.54325 9.7845 8.37975 9.621C7.81275 9.054 7.5 8.301 7.5 7.5C7.5 6.699 7.812 5.94525 8.37825 5.37825L10.6282 3.129C11.1952 2.562 11.949 2.25 12.75 2.25C13.551 2.25 14.3047 2.562 14.8717 3.129C15.438 3.696 15.75 4.449 15.75 5.25C15.75 6.051 15.438 6.804 14.8717 7.371L13.2915 8.95125C13.425 9.45075 13.5 9.969 13.5 10.5C13.5 10.6215 13.491 10.7415 13.4842 10.8615C13.551 10.8022 13.6192 10.7452 13.683 10.6815L15.933 8.4315C16.782 7.58175 17.25 6.45225 17.25 5.25C17.25 4.04775 16.782 2.91825 15.9322 2.0685Z" fill="#508CA4"/>
</svg>
