<svg width="18" height="18" viewBox="0 0 18 18" fill="none" xmlns="http://www.w3.org/2000/svg">
<path d="M17.9908 9.19239C17.9908 8.66711 17.5969 8.27315 17.0716 8.27315L10.1116 8.27315L10.1116 1.3132C10.1116 0.787919 9.71766 0.39396 9.19238 0.39396C8.6671 0.39396 8.27314 0.787919 8.27314 1.3132L8.27314 8.27315L1.31319 8.27315C0.787912 8.27315 0.393952 8.66711 0.393952 9.19239C0.393952 9.45503 0.459612 9.65201 0.656592 9.84899C0.853571 10.046 1.05055 10.1116 1.31319 10.1116L8.27314 10.1116L8.27314 17.0716C8.27314 17.3342 8.40446 17.5969 8.53578 17.7282C8.6671 17.8595 8.92974 17.9908 9.19238 17.9908C9.71766 17.9908 10.1116 17.5969 10.1116 17.0716L10.1116 10.1116L17.0716 10.1116C17.5969 10.1116 17.9908 9.71767 17.9908 9.19239Z" fill="#BDBDBD"/>
</svg>
