<svg width="16" height="15" viewBox="0 0 16 15" fill="none" xmlns="http://www.w3.org/2000/svg">
<path d="M0.479452 6.55269C1.43836 4.17319 4.05479 2.97664 8.28767 2.97664H10.2877V0.719517C10.2877 0.569949 10.3425 0.433977 10.4521 0.3252C10.5616 0.202826 10.6986 0.148438 10.863 0.148438C11.0137 0.148438 11.1507 0.202826 11.2603 0.311603L15.8356 4.85305C15.9452 4.96183 16 5.0978 16 5.24737C16 5.39693 15.9452 5.53291 15.8356 5.64168L11.2603 10.1831C11.1507 10.2919 11.0137 10.3463 10.863 10.3463C10.7123 10.3463 10.5753 10.2919 10.4658 10.1831C10.3562 10.0744 10.3014 9.93838 10.3014 9.78881V7.51809H8.30137C7.71233 7.51809 7.19178 7.53168 6.73973 7.57248C6.27397 7.61327 5.82192 7.66766 5.36986 7.76284C4.91781 7.85802 4.52055 7.98039 4.17808 8.14356C3.83562 8.30672 3.53425 8.51068 3.23288 8.75543C2.94521 9.00018 2.69863 9.29931 2.52055 9.65284C2.34247 9.99277 2.19178 10.4143 2.08219 10.8766C1.9726 11.3525 1.93151 11.8828 1.93151 12.481C1.93151 12.8074 1.94521 13.1745 1.9726 13.5688C1.9726 13.6096 1.9863 13.6776 2 13.7728C2.0137 13.8815 2.0274 13.9495 2.0274 14.0039C2.0274 14.0855 2 14.1671 1.94521 14.2215C1.89041 14.2759 1.82192 14.3031 1.73973 14.3031C1.64384 14.3031 1.56164 14.2487 1.49315 14.1535C1.45205 14.0991 1.41096 14.0311 1.38356 13.9631C1.34247 13.8815 1.30137 13.8 1.26027 13.6912C1.21918 13.596 1.17808 13.5144 1.16438 13.4736C0.410958 11.7876 0.0273972 10.4551 0.0273972 9.47608C0 8.33392 0.164383 7.34132 0.479452 6.55269Z" fill="#BDBDBD"/>
</svg>
