<svg width="17" height="19" viewBox="0 0 17 19" fill="none" xmlns="http://www.w3.org/2000/svg">
<path d="M15.75 9.45894L7.9395 1.64844H1.5V0.148438H8.25C8.4489 0.14848 8.63963 0.227525 8.78025 0.368188L16.8105 8.39844L15.75 9.45894Z" fill="#666666"/>
<path d="M14.3407 10.4287L7.28025 3.36819C7.13963 3.22753 6.9489 3.14848 6.75 3.14844H0.75C0.551088 3.14844 0.360322 3.22746 0.21967 3.36811C0.0790176 3.50876 0 3.69953 0 3.89844L0 9.89844C4.24781e-05 10.0973 0.079088 10.2881 0.21975 10.4287L7.28025 17.4892C7.48919 17.6982 7.73724 17.8639 8.01025 17.977C8.28326 18.0901 8.57587 18.1483 8.87138 18.1483C9.16688 18.1483 9.45949 18.0901 9.7325 17.977C10.0055 17.8639 10.2536 17.6982 10.4625 17.4892L14.3407 13.6109C14.5497 13.402 14.7155 13.1539 14.8286 12.8809C14.9417 12.6079 14.9999 12.3153 14.9999 12.0198C14.9999 11.7243 14.9417 11.4317 14.8286 11.1587C14.7155 10.8857 14.5497 10.6376 14.3407 10.4287ZM4.5 9.14844C4.20333 9.14844 3.91332 9.06046 3.66664 8.89564C3.41997 8.73082 3.22771 8.49655 3.11418 8.22246C3.00065 7.94837 2.97094 7.64677 3.02882 7.3558C3.0867 7.06483 3.22956 6.79756 3.43934 6.58778C3.64912 6.378 3.91639 6.23514 4.20736 6.17726C4.49834 6.11938 4.79994 6.14909 5.07403 6.26262C5.34811 6.37615 5.58238 6.56841 5.7472 6.81508C5.91203 7.06176 6 7.35177 6 7.64844C6 8.04626 5.84196 8.42779 5.56066 8.7091C5.27936 8.9904 4.89782 9.14844 4.5 9.14844Z" fill="#666666"/>
</svg>
