<svg width="21" height="17" viewBox="0 0 21 17" fill="none" xmlns="http://www.w3.org/2000/svg">
<path d="M20.125 0.62501C19.2871 1.21605 18.3593 1.66811 17.3775 1.96376C16.8505 1.35783 16.1502 0.928365 15.3712 0.733445C14.5921 0.538525 13.7721 0.587556 13.0218 0.873906C12.2716 1.16026 11.6274 1.67011 11.1764 2.33451C10.7253 2.99891 10.4892 3.7858 10.5 4.58876V5.46376C8.9623 5.50363 7.43861 5.1626 6.06463 4.47102C4.69065 3.77945 3.50903 2.75882 2.625 1.50001C2.625 1.50001 -0.875 9.37501 7 12.875C5.19796 14.0982 3.05126 14.7116 0.875 14.625C8.75 19 18.375 14.625 18.375 4.56251C18.3742 4.31878 18.3508 4.07565 18.305 3.83626C19.198 2.95557 19.8282 1.84363 20.125 0.62501Z" fill="#55ACEE"/>
</svg>
