<svg width="20" height="20" viewBox="0 0 20 20" fill="none" xmlns="http://www.w3.org/2000/svg">
<g clip-path="url(#clip0)">
<path d="M3.40095 12.5117L8.76756 12.5117L8.76756 17.5039C8.76756 19.376 9.766 20 11.2637 20C11.6381 20 12.0125 19.7504 12.0125 19.376C12.0125 19.376 14.883 10.0156 15.0078 10.0156L15.0078 0.0312004L4.27458 0.0312013C2.65212 0.0312015 1.27926 1.27925 1.02965 2.90172L0.0312118 8.64275C-0.0935935 9.64119 0.156017 10.6396 0.780043 11.2637C1.40407 12.1373 2.40251 12.5117 3.40095 12.5117Z" fill="#BDBDBD"/>
<path d="M20 10.0156L17.5039 10.0156L17.5039 0.0312254L20 0.0312252L20 10.0156Z" fill="#BDBDBD"/>
</g>
<defs>
<clipPath id="clip0">
<rect width="20" height="20" fill="white" transform="translate(20 20) rotate(180)"/>
</clipPath>
</defs>
</svg>
