<svg width="23" height="21" viewBox="0 0 23 21" fill="none" xmlns="http://www.w3.org/2000/svg">
<path d="M13.1709 0.0742479C12.9125 -0.0501234 12.6088 -0.0169994 12.3856 0.164245L5.16759 6.00032H1.71842C0.900959 6.00032 0.234375 6.67343 0.234375 7.50028V13.5001C0.234375 14.3282 0.900959 15.0001 1.71842 15.0001H5.16759L12.3844 20.8361C12.5192 20.9443 12.6843 20.9999 12.8488 20.9999C12.9588 20.9999 13.0683 20.9743 13.1709 20.9249C13.4275 20.8005 13.5908 20.5374 13.5908 20.2499V0.750478C13.5908 0.462361 13.4275 0.200494 13.1709 0.0742479Z" fill="#BDBDBD"/>
<path d="M17.3465 5.19657C17.054 4.90533 16.5853 4.90971 16.2978 5.2022C16.0096 5.49781 16.0127 5.97155 16.3033 6.26404C17.4257 7.38276 18.0428 8.88772 18.0428 10.5002C18.0428 12.1126 17.4257 13.617 16.3033 14.7357C16.0127 15.025 16.0096 15.5007 16.2978 15.7963C16.4431 15.945 16.6348 16.0181 16.8246 16.0181C17.0132 16.0181 17.2012 15.9463 17.3471 15.8006C18.7539 14.4019 19.5268 12.5176 19.5268 10.5002C19.5268 8.48273 18.7539 6.59903 17.3465 5.19657Z" fill="#BDBDBD"/>
<path d="M19.441 3.08289C19.1485 2.7904 18.6798 2.79353 18.3904 3.08727C18.1023 3.38101 18.1054 3.85662 18.3948 4.14786C20.0823 5.83844 21.011 8.09462 21.011 10.5002C21.011 12.9057 20.0823 15.1607 18.3948 16.8506C18.1054 17.1431 18.1023 17.6187 18.3904 17.9125C18.537 18.0593 18.7275 18.1331 18.9173 18.1331C19.1059 18.1331 19.2957 18.0612 19.441 17.9156C21.4117 15.9438 22.4951 13.3095 22.4951 10.5002C22.4951 7.69088 21.4117 5.05721 19.441 3.08289Z" fill="#BDBDBD"/>
</svg>
